<svg width="260" height="330" viewBox="0 0 260 330" fill="none" class="buzz-module--buzzSvg--SE8J2"><title></title><g class="message"><path class="messageBase" fill-rule="evenodd" clip-rule="evenodd" d="M111.25 18.1428C102.413 18.1428 95.25 25.3063 95.25 34.1428V101.929C95.25 110.765 102.413 117.929 111.25 117.929H176.893V132.67L193.877 117.929H197.179C206.015 117.929 213.179 110.765 213.179 101.929V34.1428C213.179 25.3063 206.015 18.1428 197.179 18.1428H111.25Z" fill="white"></path><path class="messageIcon email" d="M116.998 52.9793C116.998 52.9793 116.998 52.8785 116.998 52.9793C116.998 48.5451 113.372 44.9172 108.94 44.9172H66.0317C61.5998 44.9172 58.0745 48.4444 57.9738 52.8785C57.9738 52.8785 57.9738 52.8785 57.9738 52.9793V85.2276C57.9738 89.6617 61.5998 93.2896 66.0317 93.2896H109.041C113.473 93.2896 117.099 89.6617 117.099 85.2276L116.998 52.9793ZM66.0317 50.2583H109.041C110.048 50.2583 110.955 50.863 111.458 51.77L87.4859 68.4988L63.6143 51.77C64.0172 50.863 64.9237 50.2583 66.0317 50.2583ZM108.94 87.9485H66.0317C64.5208 87.9485 63.3121 86.7392 63.3121 85.2276V58.1188L85.975 73.9407C86.4787 74.243 86.9823 74.4445 87.4859 74.4445C87.9895 74.4445 88.5939 74.243 88.9968 73.9407L111.66 58.1188V85.2276C111.66 86.7392 110.451 87.9485 108.94 87.9485Z" fill="black"></path></g><g class="bodyWrapper bodyWrapperFloat"><g class="body"><path class="wingLeft" d="M27.5,205.8c0,26.3,24.2,43.4,49,33.1l1.9-86.7C55.1,169,27.5,179.2,27.5,205.8z" fill="#F0ECFC"></path><path class="wingRight" d="M229.9,206.9c0,26.2-24,43.2-48.7,33l-1.9-86.3C202.5,170.2,229.9,180.5,229.9,206.9z" fill="#F0ECFC"></path><path d="M79.8578 151.751C80.1024 151.508 79.7241 116.084 128.737 115.958C177.888 116.084 177.386 151.746 177.611 151.746C160.93 165.127 96.0832 165.415 79.8578 151.751ZM128.737 278.954C136.518 278.954 165.976 260.244 179.498 235.276C155.034 253.159 101.582 253.483 77.9882 235.298C90.4123 259.093 120.592 278.954 128.737 278.954ZM188.177 172.576C187.01 173.597 170.504 187.19 128.998 187.297C86.0077 187.185 69.3838 172.668 69.2927 172.588C65.7201 184.429 65.4788 197.145 68.3039 209.901C68.776 210.36 86.4684 227.231 129.001 227.359C168.136 227.242 186.185 212.54 189.169 209.903C190.767 202.591 192.985 188.713 188.177 172.576Z" fill="black"></path><path d="M128.999 187.297C86.0085 187.185 69.3846 172.668 69.2935 172.588C69.6916 171.479 72.0997 162.111 79.8586 151.751C96.084 165.415 160.931 165.127 177.612 151.745C182.373 158.101 185.923 165.106 188.178 172.576C187.01 173.597 170.505 187.19 128.999 187.297ZM189.17 209.903C186.185 212.54 168.137 227.242 129.001 227.359C86.4692 227.231 68.7768 210.36 68.3047 209.901C68.9504 212.478 70.8522 222.133 77.989 235.298C101.583 253.483 155.035 253.159 179.499 235.276C179.499 235.275 179.5 235.275 179.5 235.275C183.849 227.244 187.196 218.818 189.17 209.903Z" fill="#FFFF00"></path><path class="eyesDefault" d="M120.2,139.8c-0.5,4.2-2.8,6.4-5.3,6.1c-2.5-0.3-4.2-3-3.7-7.2c0.5-4.2,3-8.2,5.5-7.9 C119.2,131.2,120.7,135.6,120.2,139.8z M140.3,130.9c2.5-0.3,5,3.7,5.5,7.9c0.5,4.2-1.2,6.9-3.7,7.2c-2.5,0.3-4.8-2-5.3-6.1 C136.3,135.6,137.8,131.2,140.3,130.9z" fill="#ffffff"></path></g></g><ellipse class="shadow shadowAnimate" rx="36.2857" ry="4.53572" cx="128.7" cy="323.4" fill="#F0ECFC"></ellipse></svg>