<svg width="260" height="330" viewBox="0 0 260 330" fill="none" class="buzz-module--buzzSvg--SE8J2"><title></title><g class="message"><path class="messageBase" fill-rule="evenodd" clip-rule="evenodd" d="M111.25 18.1428C102.413 18.1428 95.25 25.3063 95.25 34.1428V101.929C95.25 110.765 102.413 117.929 111.25 117.929H176.893V132.67L193.877 117.929H197.179C206.015 117.929 213.179 110.765 213.179 101.929V34.1428C213.179 25.3063 206.015 18.1428 197.179 18.1428H111.25Z" fill="white"></path><path class="messageIcon plane" d="M183.318 41.6134C183.318 41.4147 183.318 41.216 183.218 41.0174V40.918C183.218 40.7194 183.119 40.62 183.02 40.4214C183.02 40.322 183.02 40.2227 183.02 40.2227C182.92 40.024 182.821 39.8254 182.622 39.726C182.424 39.5274 182.225 39.4281 182.026 39.2294H181.927C181.728 39.1301 181.629 39.0307 181.43 39.0307H181.331C181.132 39.0307 180.934 38.9314 180.636 38.9314C180.536 38.9314 180.536 38.9314 180.536 38.9314C180.338 38.9314 180.139 39.0307 180.04 39.0307H179.94L126.897 57.6057C125.904 58.0031 125.209 58.8971 125.109 59.9897C125.109 61.0823 125.705 62.0757 126.699 62.473L149.644 72.6048L159.875 95.5504C160.273 96.5437 161.266 97.1397 162.259 97.1397H162.359C163.451 97.1397 164.345 96.3451 164.743 95.3518L183.218 42.408V42.3087C183.318 42.11 183.318 41.9113 183.318 41.812C183.318 41.7127 183.318 41.7127 183.318 41.6134ZM170.603 47.8712L150.936 67.5389L134.844 60.387L170.603 47.8712ZM161.862 87.3059L154.71 71.2142L174.378 51.5465L161.862 87.3059Z" fill="#1E1E1E"></path></g><g class="bodyWrapper"><g class="body"><path class="wingLeft" d="M27.5,205.8c0,26.3,24.2,43.4,49,33.1l1.9-86.7C55.1,169,27.5,179.2,27.5,205.8z" fill="#F0ECFC"></path><path class="wingRight" d="M229.9,206.9c0,26.2-24,43.2-48.7,33l-1.9-86.3C202.5,170.2,229.9,180.5,229.9,206.9z" fill="#F0ECFC"></path><path d="M79.8578 151.751C80.1024 151.508 79.7241 116.084 128.737 115.958C177.888 116.084 177.386 151.746 177.611 151.746C160.93 165.127 96.0832 165.415 79.8578 151.751ZM128.737 278.954C136.518 278.954 165.976 260.244 179.498 235.276C155.034 253.159 101.582 253.483 77.9882 235.298C90.4123 259.093 120.592 278.954 128.737 278.954ZM188.177 172.576C187.01 173.597 170.504 187.19 128.998 187.297C86.0077 187.185 69.3838 172.668 69.2927 172.588C65.7201 184.429 65.4788 197.145 68.3039 209.901C68.776 210.36 86.4684 227.231 129.001 227.359C168.136 227.242 186.185 212.54 189.169 209.903C190.767 202.591 192.985 188.713 188.177 172.576Z" fill="black"></path><path d="M128.999 187.297C86.0085 187.185 69.3846 172.668 69.2935 172.588C69.6916 171.479 72.0997 162.111 79.8586 151.751C96.084 165.415 160.931 165.127 177.612 151.745C182.373 158.101 185.923 165.106 188.178 172.576C187.01 173.597 170.505 187.19 128.999 187.297ZM189.17 209.903C186.185 212.54 168.137 227.242 129.001 227.359C86.4692 227.231 68.7768 210.36 68.3047 209.901C68.9504 212.478 70.8522 222.133 77.989 235.298C101.583 253.483 155.035 253.159 179.499 235.276C179.499 235.275 179.5 235.275 179.5 235.275C183.849 227.244 187.196 218.818 189.17 209.903Z" fill="#FFFF00"></path><path class="eyesLeft" d="M114.511 137.905C113.49 141.802 110.99 143.647 108.663 143.039C106.335 142.431 105.061 139.599 106.082 135.702C107.104 131.805 110.034 128.317 112.361 128.925C114.689 129.534 115.532 134.008 114.511 137.905ZM133.088 131.63C135.493 131.674 137.368 135.824 137.294 139.852C137.22 143.88 135.226 146.261 132.82 146.217C130.415 146.173 128.509 143.721 128.583 139.693C128.657 135.665 130.682 131.586 133.088 131.63Z" fill="white"></path></g></g><ellipse class="shadow" rx="36.2857" ry="4.53572" cx="128.7" cy="323.4" fill="#F0ECFC"></ellipse></svg>